<mxfile host="app.diagrams.net" agent="Mozilla/5.0 (Macintosh; Intel Mac OS X 10_15_7) AppleWebKit/537.36 (KHTML, like Gecko) Chrome/116.0.0.0 Safari/537.36" version="26.0.16">
  <diagram name="PÃ¡gina-1" id="Zckz475u-_WNGe6-bUfh">
    <mxGraphModel dx="1084" dy="550" grid="1" gridSize="10" guides="1" tooltips="1" connect="1" arrows="1" fold="1" page="1" pageScale="1" pageWidth="827" pageHeight="1169" math="0" shadow="0">
      <root>
        <mxCell id="0" />
        <mxCell id="1" parent="0" />
        <mxCell id="F3jqK-fL_MvysiYrFkw--1" value="Estudiante" style="swimlane;fontStyle=1;align=center;verticalAlign=top;childLayout=stackLayout;horizontal=1;startSize=26;horizontalStack=0;resizeParent=1;resizeParentMax=0;resizeLast=0;collapsible=1;marginBottom=0;whiteSpace=wrap;html=1;" vertex="1" parent="1">
          <mxGeometry x="140" y="80" width="190" height="220" as="geometry" />
        </mxCell>
        <mxCell id="F3jqK-fL_MvysiYrFkw--2" value="- nombre : String&lt;div&gt;- matricula : String&lt;/div&gt;&lt;div&gt;- promedio : double&lt;/div&gt;" style="text;strokeColor=none;fillColor=none;align=left;verticalAlign=top;spacingLeft=4;spacingRight=4;overflow=hidden;rotatable=0;points=[[0,0.5],[1,0.5]];portConstraint=eastwest;whiteSpace=wrap;html=1;" vertex="1" parent="F3jqK-fL_MvysiYrFkw--1">
          <mxGeometry y="26" width="190" height="64" as="geometry" />
        </mxCell>
        <mxCell id="F3jqK-fL_MvysiYrFkw--3" value="" style="line;strokeWidth=1;fillColor=none;align=left;verticalAlign=middle;spacingTop=-1;spacingLeft=3;spacingRight=3;rotatable=0;labelPosition=right;points=[];portConstraint=eastwest;strokeColor=inherit;" vertex="1" parent="F3jqK-fL_MvysiYrFkw--1">
          <mxGeometry y="90" width="190" height="8" as="geometry" />
        </mxCell>
        <mxCell id="F3jqK-fL_MvysiYrFkw--4" value="+ getNombre&lt;span style=&quot;background-color: transparent;&quot;&gt;(): String&lt;/span&gt;&lt;div&gt;&lt;span style=&quot;background-color: transparent;&quot;&gt;+ getMatricula() : String&lt;/span&gt;&lt;/div&gt;&lt;div&gt;&lt;span style=&quot;background-color: transparent;&quot;&gt;+ gelPromedio() : double&lt;/span&gt;&lt;/div&gt;&lt;div&gt;&lt;span style=&quot;background-color: transparent;&quot;&gt;+ setNombre(String): void&lt;/span&gt;&lt;/div&gt;&lt;div&gt;&lt;span style=&quot;background-color: transparent;&quot;&gt;+ setMatricula(String): void&lt;/span&gt;&lt;/div&gt;&lt;div&gt;&lt;span style=&quot;background-color: transparent;&quot;&gt;+ setPromedio(double): void&lt;/span&gt;&lt;/div&gt;&lt;div&gt;&lt;span style=&quot;background-color: transparent;&quot;&gt;+ toString(): String&lt;/span&gt;&lt;/div&gt;&lt;div&gt;&lt;span style=&quot;background-color: transparent;&quot;&gt;&lt;br&gt;&lt;/span&gt;&lt;/div&gt;" style="text;strokeColor=none;fillColor=none;align=left;verticalAlign=top;spacingLeft=4;spacingRight=4;overflow=hidden;rotatable=0;points=[[0,0.5],[1,0.5]];portConstraint=eastwest;whiteSpace=wrap;html=1;" vertex="1" parent="F3jqK-fL_MvysiYrFkw--1">
          <mxGeometry y="98" width="190" height="122" as="geometry" />
        </mxCell>
        <mxCell id="F3jqK-fL_MvysiYrFkw--5" value="Curso" style="swimlane;fontStyle=1;align=center;verticalAlign=top;childLayout=stackLayout;horizontal=1;startSize=26;horizontalStack=0;resizeParent=1;resizeParentMax=0;resizeLast=0;collapsible=1;marginBottom=0;whiteSpace=wrap;html=1;" vertex="1" parent="1">
          <mxGeometry x="490" y="80" width="240" height="170" as="geometry" />
        </mxCell>
        <mxCell id="F3jqK-fL_MvysiYrFkw--6" value="- nommbreCurso: String&lt;div&gt;- listaEstudiantes : List&amp;lt;Estudiante&amp;gt;&lt;/div&gt;" style="text;strokeColor=none;fillColor=none;align=left;verticalAlign=top;spacingLeft=4;spacingRight=4;overflow=hidden;rotatable=0;points=[[0,0.5],[1,0.5]];portConstraint=eastwest;whiteSpace=wrap;html=1;" vertex="1" parent="F3jqK-fL_MvysiYrFkw--5">
          <mxGeometry y="26" width="240" height="64" as="geometry" />
        </mxCell>
        <mxCell id="F3jqK-fL_MvysiYrFkw--7" value="" style="line;strokeWidth=1;fillColor=none;align=left;verticalAlign=middle;spacingTop=-1;spacingLeft=3;spacingRight=3;rotatable=0;labelPosition=right;points=[];portConstraint=eastwest;strokeColor=inherit;" vertex="1" parent="F3jqK-fL_MvysiYrFkw--5">
          <mxGeometry y="90" width="240" height="8" as="geometry" />
        </mxCell>
        <mxCell id="F3jqK-fL_MvysiYrFkw--8" value="+ agregarEstudiane(e Estudiante): void&lt;div&gt;+ eliminarEstudiante(m String): boolean&lt;/div&gt;&lt;div&gt;+ buscarEstudiante(m String): Estudiante&lt;/div&gt;&lt;div&gt;+ listarEstudiantes():void&lt;/div&gt;&lt;div&gt;&lt;br&gt;&lt;div&gt;&lt;br&gt;&lt;/div&gt;&lt;/div&gt;" style="text;strokeColor=none;fillColor=none;align=left;verticalAlign=top;spacingLeft=4;spacingRight=4;overflow=hidden;rotatable=0;points=[[0,0.5],[1,0.5]];portConstraint=eastwest;whiteSpace=wrap;html=1;" vertex="1" parent="F3jqK-fL_MvysiYrFkw--5">
          <mxGeometry y="98" width="240" height="72" as="geometry" />
        </mxCell>
        <mxCell id="F3jqK-fL_MvysiYrFkw--9" value="DemoCursoEstudiantes" style="swimlane;fontStyle=1;align=center;verticalAlign=top;childLayout=stackLayout;horizontal=1;startSize=26;horizontalStack=0;resizeParent=1;resizeParentMax=0;resizeLast=0;collapsible=1;marginBottom=0;whiteSpace=wrap;html=1;" vertex="1" parent="1">
          <mxGeometry x="330" y="390" width="160" height="60" as="geometry" />
        </mxCell>
        <mxCell id="F3jqK-fL_MvysiYrFkw--10" value="+ main(args[] String):void" style="text;strokeColor=none;fillColor=none;align=left;verticalAlign=top;spacingLeft=4;spacingRight=4;overflow=hidden;rotatable=0;points=[[0,0.5],[1,0.5]];portConstraint=eastwest;whiteSpace=wrap;html=1;" vertex="1" parent="F3jqK-fL_MvysiYrFkw--9">
          <mxGeometry y="26" width="160" height="26" as="geometry" />
        </mxCell>
        <mxCell id="F3jqK-fL_MvysiYrFkw--11" value="" style="line;strokeWidth=1;fillColor=none;align=left;verticalAlign=middle;spacingTop=-1;spacingLeft=3;spacingRight=3;rotatable=0;labelPosition=right;points=[];portConstraint=eastwest;strokeColor=inherit;" vertex="1" parent="F3jqK-fL_MvysiYrFkw--9">
          <mxGeometry y="52" width="160" height="8" as="geometry" />
        </mxCell>
        <mxCell id="F3jqK-fL_MvysiYrFkw--14" value="DIAGRAMA DE CLASES DE LISTA DE&amp;nbsp; ESTUDIANTES EN UN CURSO" style="text;html=1;align=center;verticalAlign=middle;resizable=0;points=[];autosize=1;strokeColor=none;fillColor=none;" vertex="1" parent="1">
          <mxGeometry x="210" y="18" width="410" height="30" as="geometry" />
        </mxCell>
        <mxCell id="F3jqK-fL_MvysiYrFkw--17" value="" style="endArrow=diamondThin;endFill=0;endSize=24;html=1;rounded=0;" edge="1" parent="1">
          <mxGeometry width="160" relative="1" as="geometry">
            <mxPoint x="580" y="254" as="sourcePoint" />
            <mxPoint x="414" y="380" as="targetPoint" />
            <Array as="points">
              <mxPoint x="580" y="320" />
              <mxPoint x="414" y="320" />
            </Array>
          </mxGeometry>
        </mxCell>
        <mxCell id="F3jqK-fL_MvysiYrFkw--18" value="0...*" style="text;html=1;align=center;verticalAlign=middle;resizable=0;points=[];autosize=1;strokeColor=none;fillColor=none;" vertex="1" parent="1">
          <mxGeometry x="580" y="248" width="40" height="30" as="geometry" />
        </mxCell>
        <mxCell id="F3jqK-fL_MvysiYrFkw--19" value="" style="endArrow=diamondThin;endFill=0;endSize=24;html=1;rounded=0;exitX=0.453;exitY=1.025;exitDx=0;exitDy=0;exitPerimeter=0;" edge="1" parent="1" source="F3jqK-fL_MvysiYrFkw--4">
          <mxGeometry width="160" relative="1" as="geometry">
            <mxPoint x="170" y="419.5" as="sourcePoint" />
            <mxPoint x="330" y="419.5" as="targetPoint" />
            <Array as="points">
              <mxPoint x="226" y="420" />
            </Array>
          </mxGeometry>
        </mxCell>
        <mxCell id="F3jqK-fL_MvysiYrFkw--20" value="0..*" style="text;html=1;align=center;verticalAlign=middle;resizable=0;points=[];autosize=1;strokeColor=none;fillColor=none;" vertex="1" parent="1">
          <mxGeometry x="220" y="298" width="40" height="30" as="geometry" />
        </mxCell>
        <mxCell id="F3jqK-fL_MvysiYrFkw--21" value="" style="endArrow=block;startArrow=block;endFill=1;startFill=1;html=1;rounded=0;" edge="1" parent="1">
          <mxGeometry width="160" relative="1" as="geometry">
            <mxPoint x="330" y="200" as="sourcePoint" />
            <mxPoint x="490" y="200" as="targetPoint" />
          </mxGeometry>
        </mxCell>
        <mxCell id="F3jqK-fL_MvysiYrFkw--22" value="0..*" style="text;html=1;align=center;verticalAlign=middle;resizable=0;points=[];autosize=1;strokeColor=none;fillColor=none;" vertex="1" parent="1">
          <mxGeometry x="320" y="198" width="40" height="30" as="geometry" />
        </mxCell>
        <mxCell id="F3jqK-fL_MvysiYrFkw--23" value="0..*" style="text;html=1;align=center;verticalAlign=middle;resizable=0;points=[];autosize=1;strokeColor=none;fillColor=none;" vertex="1" parent="1">
          <mxGeometry x="440" y="198" width="40" height="30" as="geometry" />
        </mxCell>
      </root>
    </mxGraphModel>
  </diagram>
</mxfile>
